IKResults
version=1
nRows=4
nColumns=79
inDegrees=yes
endheader
time	/jointset/ground_pelvis/pelvis_tilt/value	/jointset/ground_pelvis/pelvis_tilt/speed	/jointset/ground_pelvis/pelvis_list/value	/jointset/ground_pelvis/pelvis_list/speed	/jointset/ground_pelvis/pelvis_rotation/value	/jointset/ground_pelvis/pelvis_rotation/speed	/jointset/ground_pelvis/pelvis_tx/value	/jointset/ground_pelvis/pelvis_tx/speed	/jointset/ground_pelvis/pelvis_ty/value	/jointset/ground_pelvis/pelvis_ty/speed	/jointset/ground_pelvis/pelvis_tz/value	/jointset/ground_pelvis/pelvis_tz/speed	/jointset/hip_r/hip_flexion_r/value	/jointset/hip_r/hip_flexion_r/speed	/jointset/hip_r/hip_adduction_r/value	/jointset/hip_r/hip_adduction_r/speed	/jointset/hip_r/hip_rotation_r/value	/jointset/hip_r/hip_rotation_r/speed	/jointset/walker_knee_r/knee_angle_r/value	/jointset/walker_knee_r/knee_angle_r/speed	/jointset/patellofemoral_r/knee_angle_r_beta/value	/jointset/patellofemoral_r/knee_angle_r_beta/speed	/jointset/ankle_r/ankle_angle_r/value	/jointset/ankle_r/ankle_angle_r/speed	/jointset/subtalar_r/subtalar_angle_r/value	/jointset/subtalar_r/subtalar_angle_r/speed	/jointset/mtp_r/mtp_angle_r/value	/jointset/mtp_r/mtp_angle_r/speed	/jointset/hip_l/hip_flexion_l/value	/jointset/hip_l/hip_flexion_l/speed	/jointset/hip_l/hip_adduction_l/value	/jointset/hip_l/hip_adduction_l/speed	/jointset/hip_l/hip_rotation_l/value	/jointset/hip_l/hip_rotation_l/speed	/jointset/walker_knee_l/knee_angle_l/value	/jointset/walker_knee_l/knee_angle_l/speed	/jointset/patellofemoral_l/knee_angle_l_beta/value	/jointset/patellofemoral_l/knee_angle_l_beta/speed	/jointset/ankle_l/ankle_angle_l/value	/jointset/ankle_l/ankle_angle_l/speed	/jointset/subtalar_l/subtalar_angle_l/value	/jointset/subtalar_l/subtalar_angle_l/speed	/jointset/mtp_l/mtp_angle_l/value	/jointset/mtp_l/mtp_angle_l/speed	/jointset/back/lumbar_extension/value	/jointset/back/lumbar_extension/speed	/jointset/back/lumbar_bending/value	/jointset/back/lumbar_bending/speed	/jointset/back/lumbar_rotation/value	/jointset/back/lumbar_rotation/speed	/jointset/acromial_r/arm_flex_r/value	/jointset/acromial_r/arm_flex_r/speed	/jointset/acromial_r/arm_add_r/value	/jointset/acromial_r/arm_add_r/speed	/jointset/acromial_r/arm_rot_r/value	/jointset/acromial_r/arm_rot_r/speed	/jointset/elbow_r/elbow_flex_r/value	/jointset/elbow_r/elbow_flex_r/speed	/jointset/radioulnar_r/pro_sup_r/value	/jointset/radioulnar_r/pro_sup_r/speed	/jointset/radius_hand_r/wrist_flex_r/value	/jointset/radius_hand_r/wrist_flex_r/speed	/jointset/radius_hand_r/wrist_dev_r/value	/jointset/radius_hand_r/wrist_dev_r/speed	/jointset/acromial_l/arm_flex_l/value	/jointset/acromial_l/arm_flex_l/speed	/jointset/acromial_l/arm_add_l/value	/jointset/acromial_l/arm_add_l/speed	/jointset/acromial_l/arm_rot_l/value	/jointset/acromial_l/arm_rot_l/speed	/jointset/elbow_l/elbow_flex_l/value	/jointset/elbow_l/elbow_flex_l/speed	/jointset/radioulnar_l/pro_sup_l/value	/jointset/radioulnar_l/pro_sup_l/speed	/jointset/radius_hand_l/wrist_flex_l/value	/jointset/radius_hand_l/wrist_flex_l/speed	/jointset/radius_hand_l/wrist_dev_l/value	/jointset/radius_hand_l/wrist_dev_l/speed
      0.00000000	      0.00000000	      0.00000000	      0.00000000	      0.00000000	      0.00000000	      0.00000000	      0.00000000	      0.00000000	      0.94000000	      0.00000000	      0.00000000	      0.00000000	      0.00000000	      0.00000000	      0.00000000	      0.00000000	      0.00000000	      0.00000000	      0.00000000	      0.00000000	      0.00000000	      0.00000000	      0.00000000	      0.00000000	      0.00000000	      0.00000000	      0.00000000	      0.00000000	      0.00000000	      0.00000000	      0.00000000	      0.00000000	      0.00000000	      0.00000000	      0.00000000	      0.00000000	      0.00000000	      0.00000000	      0.00000000	      0.00000000	      0.00000000	      0.00000000	      0.00000000	      0.00000000	      0.00000000	      0.00000000	      0.00000000	      0.00000000	      0.00000000	      0.00000000	      0.00000000	      0.00000000	      0.00000000	      0.00000000	      0.00000000	      0.00000000	      0.00000000	      0.00000000	      0.00000000	      0.00000000	      0.00000000	      0.00000000	      0.00000000	      0.00000000	      0.00000000	      0.00000000	      0.00000000	      0.00000000	      0.00000000	      0.00000000	      0.00000000	      0.00000000	      0.00000000	      0.00000000	      0.00000000	      0.00000000	      0.00000000	      0.00000000
      0.02000000	      0.16452295	      0.00000000	     -0.08206953	      0.00000000	     -0.01302182	      0.00000000	      0.00000000	      0.00000000	      0.94000000	      0.00000000	      0.00000000	      0.00000000	      8.45603372	      0.00000000	     -4.15211641	      0.00000000	      0.00000000	      0.00000000	     49.30778365	      0.00000000	      0.86058317	      0.00000000	     -0.92481074	      0.00000000	      0.00000000	      0.00000000	      0.00000000	      0.00000000	      8.45603372	      0.00000000	     -4.15211641	      0.00000000	      0.00000000	      0.00000000	     49.30778365	      0.00000000	      0.86058317	      0.00000000	     -0.92481074	      0.00000000	      0.00000000	      0.00000000	      0.00000000	      0.00000000	     -0.12390236	      0.00000000	      0.03463194	      0.00000000	      0.01575020	      0.00000000	     -0.30751066	      0.00000000	     -0.08175652	      0.00000000	     -0.01691689	      0.00000000	      0.60769573	      0.00000000	     49.45242780	      0.00000000	      0.00000000	      0.00000000	      3.07572116	      0.00000000	     -0.25404935	      0.00000000	     -0.05171695	      0.00000000	     -0.00694634	      0.00000000	      0.54756115	      0.00000000	     49.45242780	      0.00000000	      0.00000000	      0.00000000	      3.07572116	      0.00000000
      0.04000000	      0.31459017	      0.00000000	     -0.15099576	      0.00000000	     -0.01633254	      0.00000000	      0.00000000	      0.00000000	      0.94000000	      0.00000000	      0.00000000	      0.00000000	      8.46254872	      0.00000000	     -4.15494497	      0.00000000	      0.00000000	      0.00000000	     49.30898004	      0.00000000	      0.86060405	      0.00000000	     -0.92558537	      0.00000000	      0.00000000	      0.00000000	      0.00000000	      0.00000000	      8.46254872	      0.00000000	     -4.15494497	      0.00000000	      0.00000000	      0.00000000	     49.30898004	      0.00000000	      0.86060405	      0.00000000	     -0.92558537	      0.00000000	      0.00000000	      0.00000000	      0.00000000	      0.00000000	     -0.20889380	      0.00000000	      0.05452560	      0.00000000	      0.02504818	      0.00000000	     -0.34894298	      0.00000000	     -0.09559775	      0.00000000	     -0.02699171	      0.00000000	      0.60363466	      0.00000000	     49.45074068	      0.00000000	      0.00000000	      0.00000000	      3.07733687	      0.00000000	     -0.24075779	      0.00000000	     -0.05188233	      0.00000000	     -0.02510587	      0.00000000	      0.52056091	      0.00000000	     49.45074068	      0.00000000	      0.00000000	      0.00000000	      3.07733687	      0.00000000
      0.06000000	      0.46500144	      0.00000000	     -0.22601710	      0.00000000	     -0.02638359	      0.00000000	      0.00000000	      0.00000000	      0.94000000	      0.00000000	      0.00000000	      0.00000000	      8.46902913	      0.00000000	     -4.15775385	      0.00000000	      0.00000000	      0.00000000	     49.31017360	      0.00000000	      0.86062488	      0.00000000	     -0.92635626	      0.00000000	      0.00000000	      0.00000000	      0.00000000	      0.00000000	      8.46902913	      0.00000000	     -4.15775385	      0.00000000	      0.00000000	      0.00000000	     49.31017360	      0.00000000	      0.86062488	      0.00000000	     -0.92635626	      0.00000000	      0.00000000	      0.00000000	      0.00000000	      0.00000000	     -0.31816546	      0.00000000	      0.07807306	      0.00000000	      0.03142135	      0.00000000	     -0.37196844	      0.00000000	     -0.06443110	      0.00000000	      0.00353873	      0.00000000	      0.61087391	      0.00000000	     49.44906430	      0.00000000	      0.00000000	      0.00000000	      3.07893919	      0.00000000	     -0.24430121	      0.00000000	      0.00756465	      0.00000000	      0.01254549	      0.00000000	      0.50203154	      0.00000000	     49.44906430	      0.00000000	      0.00000000	      0.00000000	      3.07893919	      0.00000000
